PathFileType	4	(X/Y/Z)	Walk4.trc
DataRate	CameraRate	NumFrames	NumMarkers	Units	OrigDataRate	OrigDataStartFrame	OrigNumFrames
200.000000	200.000000	9	59	mm	200.000000	479	543
Frame#	Times		RFHD		CLAV		RBack		LASI		RACR1		RUA1		RElbow		RElbowM		RFA1		RWRR		RWRU		LACR1		LUA1		LFA1		LWRR		LWRU		RTH1		RTH3		RTH2		RTB3		RTB2		LTH1		LTH2		LTB2		RMT1		RCAR		LFHD		C7		RTB1		RTB4		RPSI		T10		LTH4		LBHD		LTH3		RLFC		STRN		RBHD		LLFC		LElbowM		LCAR		LTB4		RTH4		LTB1		LElbow		LPSI		LToe		LMMAL		RMT5		LCAL		RASI		LMT1		LMT5		LTB3		LLMAL		RToe		RCAL		RMMAL		RLMAL
			X1	Y1	Z1	X2	Y2	Z2	X3	Y3	Z3	X4	Y4	Z4	X5	Y5	Z5	X6	Y6	Z6	X7	Y7	Z7	X8	Y8	Z8	X9	Y9	Z9	X10	Y10	Z10	X11	Y11	Z11	X12	Y12	Z12	X13	Y13	Z13	X14	Y14	Z14	X15	Y15	Z15	X16	Y16	Z16	X17	Y17	Z17	X18	Y18	Z18	X19	Y19	Z19	X20	Y20	Z20	X21	Y21	Z21	X22	Y22	Z22	X23	Y23	Z23	X24	Y24	Z24	X25	Y25	Z25	X26	Y26	Z26	X27	Y27	Z27	X28	Y28	Z28	X29	Y29	Z29	X30	Y30	Z30	X31	Y31	Z31	X32	Y32	Z32	X33	Y33	Z33	X34	Y34	Z34	X35	Y35	Z35	X36	Y36	Z36	X37	Y37	Z37	X38	Y38	Z38	X39	Y39	Z39	X40	Y40	Z40	X41	Y41	Z41	X42	Y42	Z42	X43	Y43	Z43	X44	Y44	Z44	X45	Y45	Z45	X46	Y46	Z46	X47	Y47	Z47	X48	Y48	Z48	X49	Y49	Z49	X50	Y50	Z50	X51	Y51	Z51	X52	Y52	Z52	X53	Y53	Z53	X54	Y54	Z54	X55	Y55	Z55	X56	Y56	Z56	X57	Y57	Z57	X58	Y58	Z58	X59	Y59	Z59

479	2.395	615.61	1412.1	11.468	598.13	1172	-49.725	407.38	1140.9	70.922	582.73	801.38	-192.54	524.04	1210.7	128.22	532.37	1073.8	215.56	524.04	951.72	258.63	470.29	913.49	192	590.86	837.78	263.62	610.55	738.58	229.25	582.89	740.51	296.19	517.57	1190.6	-238.1	514.68	1027.8	-306.17	506.3	821.73	-364.81	529.69	707.13	-357.44	477.84	714.78	-392.94	513.05	626.79	181.04	492.43	459.45	141.19	557.47	541.81	143.15	306.9	151.57	37.174	335.2	231.27	102.28	542.5	646.84	-243.76	608.82	586.98	-193.81	638.5	218.08	-142.43	281.3	38.724	-12.468	633.16	689.28	283.69	626.71	1422.9	-83.994	457.1	1256.9	-53.375	431.53	265.06	72.369	366.17	209.2	54.578	330.86	831.54	25.813	369.33	1059.1	-32.296	561.34	565.07	-222.49	500.57	1344.5	-117.36	579.14	483.94	-192.3	447.64	377.78	122.24	650.49	1066.8	-43.842	486.78	1338	15.257	620.68	402.75	-154.72	447	889.65	-250.77	506.9	658.65	-401.63	656.05	220.79	-83.023	500.91	543.54	163.49	654.68	308.23	-88.163	466.34	916.8	-320.79	323.3	831.26	-80.491	797.84	29.977	-79.327	642.16	74.632	-34.737	251.19	39.82	74.119	579.97	42.811	-68.248	583.09	825.17	132.39	748.4	34.559	-54.216	704.3	19.849	-136.16	664.09	137.97	-79.315	621.56	57.104	-112.88	322.7	27.377	22.873	174.85	158.5	10.974	249.41	137.15	-16.787	224.24	134.32	61.739
480	2.4	620.94	1413	10.761	603.47	1172.8	-50.427	412.59	1142.1	70.273	588.46	802.77	-192.82	529.26	1211.8	127.43	537.04	1074.9	214.83	528.33	952.73	257.68	474.82	914.73	190.65	594.72	838.53	262.8	614.07	739.19	228.5	586.24	741.24	295.38	523.25	1191.4	-238.75	521.24	1028.6	-306.67	513.89	822.32	-364.92	537.83	707.87	-357.01	486.25	715.15	-392.98	519.95	627.22	180.92	502.09	459.43	141.94	565.75	542.87	143.32	314.19	153.78	38.612	343.27	233.56	103.2	548.01	647.9	-244.25	613.9	587.72	-194.12	640.51	218	-142.66	284.83	39.933	-11.816	636.17	689.6	282.93	632.14	1423.6	-84.683	462.39	1257.7	-54.187	440.52	265.39	73.991	374.32	210.57	56.071	336.45	831.78	26.082	374.63	1059.9	-32.841	566.42	566.04	-222.95	505.98	1345.3	-118.2	583.72	484.81	-192.84	457.79	377.7	123.24	655.71	1067.7	-45.059	492.05	1339	14.46	624.5	403.08	-155.07	453.5	890.35	-251.41	515.6	659.03	-401.13	657.75	220.58	-83.14	509.17	543.72	163.74	657.31	308.05	-88.357	473.16	917.35	-321.39	328.42	832.2	-80.419	797.89	29.653	-79.119	642.23	74.628	-34.746	254.55	41.958	74.329	579.93	42.88	-68.355	588.95	825.74	131.24	748.35	34.26	-54.103	704.28	19.89	-136.26	664.95	137.67	-79.288	621.71	57.11	-112.93	324.63	27.333	23.819	182.83	163.78	11.239	256.94	140.17	-15.881	230.95	137.97	62.328
481	2.405	626.28	1413.8	10.079	608.79	1173.7	-51.085	417.79	1143.2	69.671	594.09	804.21	-193.13	534.46	1213	126.68	541.72	1076.1	214.14	532.61	953.77	256.76	479.33	916.02	189.35	598.58	839.33	261.99	617.57	739.84	227.75	589.6	742.01	294.58	528.89	1192.3	-239.34	527.81	1029.4	-307.13	521.53	822.98	-365.01	546.08	708.71	-356.55	494.8	715.59	-393	526.84	627.69	180.76	511.87	459.48	142.64	574.08	544.01	143.44	321.8	155.98	40.05	351.62	235.86	104.09	553.36	648.89	-244.73	618.82	588.33	-194.5	642.34	217.91	-142.88	288.98	41.254	-11.019	639.17	689.91	282.13	637.57	1424.4	-85.348	467.66	1258.5	-54.944	449.7	265.8	75.546	382.74	211.97	57.522	342	832.09	26.335	379.92	1060.8	-33.347	571.28	566.92	-223.42	511.38	1346.2	-118.99	588.03	485.59	-193.37	468.03	377.68	124.17	660.88	1068.6	-46.244	497.31	1339.9	13.701	628.07	403.32	-155.42	459.98	891.11	-252.05	524.45	659.49	-400.6	659.32	220.37	-83.267	517.47	543.93	163.93	659.76	307.85	-88.56	479.99	917.96	-321.98	333.51	833.21	-80.341	797.9	29.485	-78.948	642.27	74.635	-34.761	258.51	44.214	74.659	579.88	42.922	-68.441	594.78	826.34	130.13	748.27	34.068	-54.007	704.24	19.968	-136.34	665.73	137.39	-79.28	621.8	57.123	-112.98	327.21	27.321	24.977	191.1	168.78	11.56	264.79	143.08	-14.976	238.03	141.52	62.949
482	2.41	631.62	1414.7	9.4233	614.09	1174.6	-51.695	422.97	1144.4	69.112	599.63	805.68	-193.48	539.62	1214.2	125.98	546.43	1077.3	213.51	536.88	954.82	255.9	483.82	917.34	188.1	602.44	840.15	261.21	621.08	740.53	226.98	592.98	742.8	293.77	534.48	1193.3	-239.88	534.39	1030.3	-307.54	529.23	823.71	-365.08	554.46	709.64	-356.07	503.48	716.1	-393	533.71	628.2	180.56	521.73	459.6	143.28	582.43	545.24	143.51	329.71	158.14	41.452	360.21	238.13	104.94	558.53	649.8	-245.2	623.57	588.8	-194.93	644.01	217.8	-143.09	293.81	42.673	-10.064	642.15	690.22	281.29	642.99	1425.2	-85.987	472.89	1259.4	-55.643	459.06	266.29	77.006	391.41	213.4	58.898	347.53	832.47	26.565	385.19	1061.6	-33.816	575.92	567.72	-223.89	516.75	1347.1	-119.74	592.07	486.27	-193.88	478.32	377.73	125.01	666.02	1069.5	-47.387	502.55	1341	12.984	631.42	403.48	-155.76	466.45	891.91	-252.69	533.45	660.04	-400.03	660.79	220.16	-83.411	525.78	544.2	164.06	662.07	307.63	-88.783	486.82	918.62	-322.56	338.56	834.28	-80.261	797.87	29.438	-78.813	642.3	74.648	-34.78	263.13	46.572	75.12	579.81	42.942	-68.509	600.58	826.95	129.06	748.18	33.961	-53.928	704.19	20.069	-136.42	666.44	137.12	-79.298	621.85	57.141	-113.02	330.54	27.351	26.36	199.62	173.46	11.921	272.92	145.88	-14.093	245.49	144.93	63.589
483	2.415	636.95	1415.6	8.7965	619.36	1175.5	-52.255	428.14	1145.5	68.591	605.07	807.17	-193.85	544.76	1215.4	125.33	551.15	1078.5	212.94	541.14	955.89	255.08	488.29	918.68	186.92	606.31	840.99	260.46	624.6	741.25	226.22	596.38	743.6	292.98	540.02	1194.3	-240.37	540.95	1031.2	-307.92	536.98	824.51	-365.13	562.94	710.66	-355.56	512.27	716.67	-392.99	540.55	628.75	180.31	531.63	459.82	143.85	590.77	546.55	143.53	337.9	160.25	42.782	369.05	240.34	105.73	563.52	650.62	-245.66	628.13	589.13	-195.42	645.51	217.67	-143.31	299.38	44.172	-8.9404	645.14	690.52	280.42	648.41	1425.9	-86.597	478.1	1260.2	-56.286	468.57	266.88	78.344	400.3	214.84	60.174	353.02	832.92	26.763	390.46	1062.5	-34.252	580.34	568.41	-224.35	522.11	1348	-120.45	595.84	486.85	-194.39	488.64	377.88	125.77	671.14	1070.5	-48.477	507.79	1342	12.311	634.54	403.57	-156.11	472.9	892.75	-253.33	542.6	660.66	-399.44	662.16	219.94	-83.577	534.09	544.52	164.11	664.25	307.41	-89.032	493.64	919.32	-323.13	343.6	835.4	-80.185	797.81	29.478	-78.71	642.33	74.665	-34.805	268.46	49.014	75.722	579.73	42.946	-68.561	606.32	827.59	128.04	748.07	33.919	-53.865	704.13	20.181	-136.48	667.09	136.86	-79.348	621.86	57.162	-113.06	334.69	27.438	27.969	208.37	177.76	12.303	281.33	148.54	-13.248	253.3	148.19	64.235
484	2.42	642.28	1416.5	8.2	624.62	1176.5	-52.765	433.29	1146.6	68.103	610.4	808.66	-194.24	549.86	1216.6	124.72	555.89	1079.8	212.43	545.4	956.95	254.31	492.74	920.03	185.8	610.18	841.83	259.74	628.13	741.98	225.46	599.82	744.4	292.19	545.5	1195.3	-240.8	547.51	1032.2	-308.27	544.78	825.37	-365.17	571.52	711.75	-355.04	521.17	717.29	-392.96	547.35	629.35	180.02	541.54	460.14	144.36	599.07	547.94	143.5	346.38	162.29	44.009	378.11	242.48	106.46	568.31	651.35	-246.11	632.52	589.33	-195.96	646.87	217.53	-143.54	305.73	45.723	-7.645	648.12	690.79	279.53	653.81	1426.7	-87.177	483.28	1261.1	-56.873	478.21	267.55	79.536	409.4	216.3	61.323	358.47	833.44	26.926	395.71	1063.4	-34.657	584.52	569.01	-224.81	527.46	1348.9	-121.12	599.36	487.33	-194.88	498.95	378.13	126.42	676.22	1071.4	-49.507	513.02	1343.1	11.681	637.46	403.59	-156.46	479.32	893.61	-253.98	551.89	661.37	-398.83	663.46	219.71	-83.771	542.37	544.9	164.1	666.32	307.17	-89.312	500.46	920.05	-323.7	348.61	836.56	-80.119	797.73	29.579	-78.635	642.36	74.686	-34.836	274.52	51.517	76.468	579.64	42.937	-68.6	612.01	828.24	127.09	747.95	33.923	-53.816	704.06	20.297	-136.54	667.68	136.6	-79.432	621.84	57.185	-113.09	339.73	27.596	29.8	217.31	181.66	12.684	289.98	151.05	-12.457	261.45	151.28	64.874
485	2.425	647.61	1417.4	7.6355	629.85	1177.4	-53.224	438.43	1147.7	67.644	615.62	810.13	-194.65	554.93	1217.8	124.17	560.64	1081	211.97	549.67	958	253.6	497.17	921.38	184.77	614.07	842.67	259.06	631.68	742.73	224.71	603.29	745.2	291.43	550.94	1196.3	-241.19	554.05	1033.1	-308.58	552.61	826.27	-365.19	580.2	712.92	-354.5	530.18	717.96	-392.91	554.09	630	179.68	551.41	460.56	144.78	607.31	549.41	143.41	355.13	164.26	45.11	387.39	244.53	107.11	572.91	651.99	-246.53	636.73	589.4	-196.55	648.1	217.38	-143.77	312.88	47.299	-6.1798	651.12	691.05	278.61	659.2	1427.5	-87.725	488.44	1262	-57.405	487.97	268.33	80.563	418.69	217.76	62.329	363.87	834.02	27.047	400.95	1064.3	-35.032	588.49	569.51	-225.27	532.78	1349.8	-121.74	602.64	487.72	-195.34	509.22	378.5	126.97	681.29	1072.4	-50.467	518.24	1344.1	11.097	640.19	403.56	-156.81	485.72	894.48	-254.63	561.31	662.14	-398.2	664.69	219.48	-83.993	550.6	545.35	164.02	668.3	306.92	-89.625	507.27	920.8	-324.26	353.6	837.76	-80.067	797.64	29.718	-78.585	642.39	74.71	-34.873	281.32	54.049	77.359	579.55	42.919	-68.627	617.63	828.92	126.22	747.84	33.961	-53.781	703.99	20.411	-136.59	668.24	136.34	-79.552	621.8	57.208	-113.12	345.71	27.84	31.837	226.43	185.13	13.041	298.87	153.38	-11.731	269.94	154.18	65.494
486	2.43	652.92	1418.3	7.1044	635.07	1178.4	-53.632	443.56	1148.7	67.209	620.72	811.56	-195.06	559.96	1218.9	123.67	565.39	1082.2	211.57	553.93	959.02	252.96	501.58	922.71	183.83	617.97	843.51	258.42	635.26	743.48	223.96	606.8	745.99	290.68	556.34	1197.3	-241.54	560.56	1034.1	-308.85	560.48	827.21	-365.2	588.97	714.15	-353.94	539.27	718.67	-392.85	560.76	630.71	179.3	561.19	461.1	145.12	615.46	550.95	143.28	364.16	166.13	46.068	396.86	246.47	107.67	577.31	652.54	-246.94	640.78	589.37	-197.17	649.2	217.22	-144.01	320.83	48.865	-4.5555	654.14	691.29	277.67	664.58	1428.3	-88.241	493.58	1262.8	-57.885	497.84	269.19	81.412	428.18	219.21	63.18	369.22	834.67	27.123	406.17	1065.2	-35.381	592.24	569.92	-225.72	538.09	1350.7	-122.31	605.71	488.02	-195.78	519.43	379.01	127.41	686.33	1073.3	-51.35	523.45	1345.2	10.557	642.74	403.47	-157.16	492.1	895.35	-255.3	570.85	662.99	-397.56	665.85	219.25	-84.243	558.76	545.88	163.89	670.19	306.67	-89.97	514.07	921.56	-324.82	358.57	838.97	-80.035	797.54	29.878	-78.556	642.43	74.737	-34.916	288.87	56.575	78.391	579.46	42.894	-68.646	623.17	829.61	125.43	747.72	34.019	-53.757	703.92	20.517	-136.64	668.76	136.09	-79.707	621.73	57.231	-113.14	352.63	28.178	34.053	235.72	188.13	13.355	308.01	155.51	-11.076	278.74	156.86	66.086
487	2.435	658.23	1419.2	6.6078	640.27	1179.3	-53.99	448.67	1149.8	66.795	625.72	812.95	-195.48	564.96	1220	123.22	570.14	1083.3	211.22	558.21	960.02	252.37	505.96	924.02	182.97	621.89	844.32	257.82	638.86	744.22	223.24	610.35	746.76	289.97	561.69	1198.3	-241.84	567.05	1035.1	-309.1	568.38	828.18	-365.2	597.82	715.44	-353.37	548.45	719.42	-392.76	567.35	631.48	178.9	570.86	461.74	145.39	623.51	552.56	143.11	373.46	167.9	46.876	406.53	248.28	108.15	581.53	653.01	-247.33	644.65	589.25	-197.83	650.2	217.04	-144.26	329.57	50.39	-2.7917	657.19	691.5	276.73	669.94	1429	-88.722	498.71	1263.7	-58.313	507.82	270.16	82.079	437.85	220.66	63.873	374.5	835.38	27.152	411.39	1066.1	-35.707	595.8	570.25	-226.16	543.39	1351.6	-122.84	608.59	488.25	-196.2	529.56	379.65	127.73	691.37	1074.3	-52.15	528.65	1346.3	10.061	645.15	403.35	-157.51	498.44	896.22	-255.98	580.52	663.91	-396.9	666.97	219.02	-84.519	566.83	546.48	163.7	672	306.4	-90.343	520.86	922.33	-325.38	363.52	840.2	-80.026	797.44	30.045	-78.547	642.48	74.768	-34.966	297.15	59.056	79.557	579.37	42.865	-68.657	628.62	830.32	124.72	747.61	34.089	-53.742	703.84	20.614	-136.69	669.25	135.85	-79.892	621.66	57.254	-113.16	360.51	28.613	36.414	245.17	190.65	13.609	317.39	157.42	-10.493	287.85	159.31	66.643
